<mxfile host="app.diagrams.net" modified="2024-01-04T16:57:46.539Z" agent="Mozilla/5.0 (Windows NT 10.0; Win64; x64) AppleWebKit/537.36 (KHTML, like Gecko) Chrome/120.0.0.0 Safari/537.36" version="22.1.15" etag="MwDiC0XJkA7mU4MXFGD4" type="github">
  <diagram name="Page-1" id="F0uHKfOerT7WVtpgRx-v">
    <mxGraphModel>
      <root>
        <mxCell id="0" />
        <mxCell id="1" parent="0" />
      </root>
    </mxGraphModel>
  </diagram>
</mxfile>
